<svg width="29" height="28" viewBox="0 0 29 28" fill="none" xmlns="http://www.w3.org/2000/svg">
<g filter="url(#filter0_d_101_5459)">
<path d="M23.5938 6.75781C24.5586 6.90625 24.9297 8.09375 24.2246 8.79883L20.3281 12.6211L21.2559 18.002C21.4043 18.9668 20.3652 19.709 19.5117 19.2637L14.6875 16.7031L9.82617 19.2637C8.97266 19.709 7.93359 18.9668 8.08203 18.002L9.00977 12.6211L5.11328 8.79883C4.4082 8.09375 4.7793 6.90625 5.74414 6.75781L11.1992 5.97852L13.6113 1.04297C14.0566 0.152344 15.3184 0.189453 15.7266 1.04297L18.1758 5.97852L23.5938 6.75781ZM18.3984 11.9902L22.1465 8.35352L16.9883 7.61133L14.6875 2.93555L12.3496 7.61133L7.19141 8.35352L10.9395 11.9902L10.0488 17.1113L14.6875 14.6992L19.2891 17.1113L18.3984 11.9902Z" fill="#65646A"/>
</g>
<defs>
<filter id="filter0_d_101_5459" x="0.408203" y="0.152344" width="28.5215" height="27.5566" filterUnits="userSpaceOnUse" color-interpolation-filters="sRGB">
<feFlood flood-opacity="0" result="BackgroundImageFix"/>
<feColorMatrix in="SourceAlpha" type="matrix" values="0 0 0 0 0 0 0 0 0 0 0 0 0 0 0 0 0 0 127 0" result="hardAlpha"/>
<feOffset dy="4"/>
<feGaussianBlur stdDeviation="2"/>
<feComposite in2="hardAlpha" operator="out"/>
<feColorMatrix type="matrix" values="0 0 0 0 0 0 0 0 0 0 0 0 0 0 0 0 0 0 0.25 0"/>
<feBlend mode="normal" in2="BackgroundImageFix" result="effect1_dropShadow_101_5459"/>
<feBlend mode="normal" in="SourceGraphic" in2="effect1_dropShadow_101_5459" result="shape"/>
</filter>
</defs>
</svg>
