<svg xmlns="http://www.w3.org/2000/svg" width="24" height="24" class="h5d"><path fill="currentColor" d="m21.867 15.127.244-.028a1 1 0 0 0 .889-.994V8a1 1 0 0 0-1-1h-3V6a5 5 0 0 0-5-5h-4a5 5 0 0 0-5 5v1H2a1 1 0 0 0-1 1v6.105a1 1 0 0 0 .889.994l.244.028.437 3.493A5 5 0 0 0 7.53 23h8.938a5 5 0 0 0 4.961-4.38l.437-3.493ZM7 6a3 3 0 0 1 3-3h4a3 3 0 0 1 3 3v2a1 1 0 0 0 1 1h3v4.211l-6 .67V13a1 1 0 0 0-1-1h-4a1 1 0 0 0-1 1v.882l-6-.67V9h11a1 1 0 1 0 0-2H7V6Zm4 9.01a.8.8 0 0 0 0-.022V14h2v2h-2v-.99Zm-2 .884V17a1 1 0 0 0 1 1h4a1 1 0 0 0 1-1v-1.106l4.823-.539-.377 3.017A3 3 0 0 1 16.469 21H7.53a3 3 0 0 1-2.977-2.628l-.377-3.017 4.823.54Z"></path></svg>
