<svg width="20" height="17" viewBox="0 0 20 17" fill="none" xmlns="http://www.w3.org/2000/svg">
<path d="M11.4719 0.374756H18.5969C19.0793 0.374756 19.4875 0.782959 19.4875 1.26538V7.20288C19.4875 7.72241 19.0793 8.09351 18.5969 8.09351H11.4719C10.9524 8.09351 10.5813 7.72241 10.5813 7.20288V1.26538C10.5813 0.782959 10.9524 0.374756 11.4719 0.374756ZM8.50317 0.374756C8.9856 0.374756 9.3938 0.782959 9.3938 1.26538V7.20288C9.3938 7.72241 8.9856 8.09351 8.50317 8.09351H1.37817C0.858643 8.09351 0.487549 7.72241 0.487549 7.20288V1.26538C0.487549 0.782959 0.858643 0.374756 1.37817 0.374756H8.50317ZM0.487549 10.1716C0.487549 9.68921 0.858643 9.28101 1.37817 9.28101H8.50317C8.9856 9.28101 9.3938 9.68921 9.3938 10.1716V16.1091C9.3938 16.6287 8.9856 16.9998 8.50317 16.9998H1.37817C0.858643 16.9998 0.487549 16.6287 0.487549 16.1091V10.1716ZM11.4719 16.9998C10.9524 16.9998 10.5813 16.6287 10.5813 16.1091V10.1716C10.5813 9.68921 10.9524 9.28101 11.4719 9.28101H18.5969C19.0793 9.28101 19.4875 9.68921 19.4875 10.1716V16.1091C19.4875 16.6287 19.0793 16.9998 18.5969 16.9998H11.4719Z" fill="#65646A"/>
</svg>
