<svg xmlns="http://www.w3.org/2000/svg" width="24" height="24" class="f4d"><path fill="currentColor" d="M13.489 16.009c-.377.034-.8.073-1.49.073-.688 0-1.111-.039-1.488-.073a9.305 9.305 0 0 0-.928-.053c-1.312 0-1.666 1.083-2.01 2.135l-.015.048-.054.166c-.363 1.12-.55 1.694-1.504 1.694h-.086c-.86.005-2.951.015-2.913-3.034C3.001 6 4.937 4.126 12 4c7.062.126 8.999 2 8.999 12.965.038 3.049-2.053 3.039-2.913 3.035H18c-.954 0-1.14-.576-1.504-1.695l-.054-.166-.016-.048c-.343-1.052-.697-2.135-2.009-2.135-.354 0-.626.025-.928.053ZM8.999 9a1 1 0 0 0-2 0v1H6a1 1 0 1 0 0 2h1v1a1 1 0 1 0 2 0v-1h1a1 1 0 0 0 0-2H9V9Zm8 0a1 1 0 1 0-2 0 1 1 0 0 0 2 0Zm-1 5a1 1 0 1 0 0-2 1 1 0 0 0 0 2Zm-2-2a1 1 0 1 0 0-2 1 1 0 0 0 0 2Zm4 0a1 1 0 1 0 0-2 1 1 0 0 0 0 2Z"></path></svg>
