<svg width="19" height="20" viewBox="0 0 19 20" fill="none" xmlns="http://www.w3.org/2000/svg">
<path d="M9.20312 4.23438C11.1699 4.23438 12.7656 5.83008 12.7656 7.79688C12.7656 9.76367 11.1699 11.3594 9.20312 11.3594C7.23633 11.3594 5.64062 9.76367 5.64062 7.79688C5.64062 5.83008 7.23633 4.23438 9.20312 4.23438ZM9.20312 9.57812C10.168 9.57812 10.9844 8.79883 10.9844 7.79688C10.9844 6.83203 10.168 6.01562 9.20312 6.01562C8.20117 6.01562 7.42188 6.83203 7.42188 7.79688C7.42188 8.79883 8.20117 9.57812 9.20312 9.57812ZM9.20312 0.671875C14.2871 0.671875 18.4062 4.79102 18.4062 9.875C18.4062 14.959 14.2871 19.0781 9.20312 19.0781C4.11914 19.0781 0 14.959 0 9.875C0 4.79102 4.11914 0.671875 9.20312 0.671875ZM9.20312 17.2969C11.0215 17.2969 12.7285 16.6289 14.0273 15.5156C13.4707 14.6621 12.5059 14.1055 11.4297 14.0684C10.6504 14.291 9.9082 14.4023 9.20312 14.4023C8.46094 14.4023 7.71875 14.291 6.93945 14.0684C5.86328 14.0684 4.89844 14.6621 4.3418 15.5156C5.64062 16.6289 7.34766 17.2969 9.20312 17.2969ZM15.2148 14.1797C16.1055 12.9922 16.625 11.5078 16.625 9.875C16.625 5.79297 13.2852 2.45312 9.20312 2.45312C5.08398 2.45312 1.78125 5.79297 1.78125 9.875C1.78125 11.5078 2.26367 12.9922 3.1543 14.1797C4.04492 13.0293 5.45508 12.25 7.05078 12.25C7.42188 12.25 8.01562 12.6211 9.20312 12.6211C10.3535 12.6211 10.9473 12.25 11.3184 12.25C12.9141 12.25 14.3242 13.0293 15.2148 14.1797Z" fill="#65646A"/>
</svg>
