<svg width="19" height="16" viewBox="0 0 19 16" fill="none" xmlns="http://www.w3.org/2000/svg">
<path d="M18.4434 8.50586L12.209 14.7402C11.6523 15.2969 10.6875 14.9258 10.6875 14.1094V10.5469H5.64062C5.12109 10.5469 4.75 10.1758 4.75 9.65625V6.09375C4.75 5.61133 5.12109 5.20312 5.64062 5.20312H10.6875V1.64062C10.6875 0.861328 11.6152 0.453125 12.209 1.00977L18.4434 7.24414C18.7773 7.61523 18.7773 8.17188 18.4434 8.50586ZM7.125 14.5547C7.125 14.8145 6.90234 15 6.67969 15H3.5625C1.5957 15 0 13.4043 0 11.4375V4.3125C0 2.3457 1.5957 0.75 3.5625 0.75H6.67969C6.90234 0.75 7.125 0.972656 7.125 1.19531V2.67969C7.125 2.93945 6.90234 3.125 6.67969 3.125H3.5625C2.89453 3.125 2.375 3.68164 2.375 4.3125V11.4375C2.375 12.1055 2.89453 12.625 3.5625 12.625H6.67969C6.90234 12.625 7.125 12.8477 7.125 13.0703V14.5547Z" fill="#65646A"/>
</svg>
